<?xml version="1.0" encoding="UTF-8"?>
<!DOCTYPE svg PUBLIC "-//W3C//DTD SVG 1.1//EN" "http://www.w3.org/Graphics/SVG/1.1/DTD/svg11.dtd">
<svg version="1.2" width="70.73mm" height="24.99mm" viewBox="980 3935 7073 2499" preserveAspectRatio="xMidYMid" fill-rule="evenodd" stroke-width="28.222" stroke-linejoin="round" xmlns="http://www.w3.org/2000/svg" xmlns:ooo="http://xml.openoffice.org/svg/export" xmlns:xlink="http://www.w3.org/1999/xlink" xmlns:presentation="http://sun.com/xmlns/staroffice/presentation" xmlns:smil="http://www.w3.org/2001/SMIL20/" xmlns:anim="urn:oasis:names:tc:opendocument:xmlns:animation:1.0" xmlns:svg="urn:oasis:names:tc:opendocument:xmlns:svg-compatible:1.0" xml:space="preserve">
 <defs class="EmbeddedBulletChars">
  <g id="bullet-char-template-57356" transform="scale(0.00048828125,-0.00048828125)">
   <path d="M 580,1141 L 1163,571 580,0 -4,571 580,1141 Z"/>
  </g>
  <g id="bullet-char-template-57354" transform="scale(0.00048828125,-0.00048828125)">
   <path d="M 8,1128 L 1137,1128 1137,0 8,0 8,1128 Z"/>
  </g>
  <g id="bullet-char-template-10146" transform="scale(0.00048828125,-0.00048828125)">
   <path d="M 174,0 L 602,739 174,1481 1456,739 174,0 Z M 1358,739 L 309,1346 659,739 1358,739 Z"/>
  </g>
  <g id="bullet-char-template-10132" transform="scale(0.00048828125,-0.00048828125)">
   <path d="M 2015,739 L 1276,0 717,0 1260,543 174,543 174,936 1260,936 717,1481 1274,1481 2015,739 Z"/>
  </g>
  <g id="bullet-char-template-10007" transform="scale(0.00048828125,-0.00048828125)">
   <path d="M 0,-2 C -7,14 -16,27 -25,37 L 356,567 C 262,823 215,952 215,954 215,979 228,992 255,992 264,992 276,990 289,987 310,991 331,999 354,1012 L 381,999 492,748 772,1049 836,1024 860,1049 C 881,1039 901,1025 922,1006 886,937 835,863 770,784 769,783 710,716 594,584 L 774,223 C 774,196 753,168 711,139 L 727,119 C 717,90 699,76 672,76 641,76 570,178 457,381 L 164,-76 C 142,-110 111,-127 72,-127 30,-127 9,-110 8,-76 1,-67 -2,-52 -2,-32 -2,-23 -1,-13 0,-2 Z"/>
  </g>
  <g id="bullet-char-template-10004" transform="scale(0.00048828125,-0.00048828125)">
   <path d="M 285,-33 C 182,-33 111,30 74,156 52,228 41,333 41,471 41,549 55,616 82,672 116,743 169,778 240,778 293,778 328,747 346,684 L 369,508 C 377,444 397,411 428,410 L 1163,1116 C 1174,1127 1196,1133 1229,1133 1271,1133 1292,1118 1292,1087 L 1292,965 C 1292,929 1282,901 1262,881 L 442,47 C 390,-6 338,-33 285,-33 Z"/>
  </g>
  <g id="bullet-char-template-9679" transform="scale(0.00048828125,-0.00048828125)">
   <path d="M 813,0 C 632,0 489,54 383,161 276,268 223,411 223,592 223,773 276,916 383,1023 489,1130 632,1184 813,1184 992,1184 1136,1130 1245,1023 1353,916 1407,772 1407,592 1407,412 1353,268 1245,161 1136,54 992,0 813,0 Z"/>
  </g>
  <g id="bullet-char-template-8226" transform="scale(0.00048828125,-0.00048828125)">
   <path d="M 346,457 C 273,457 209,483 155,535 101,586 74,649 74,723 74,796 101,859 155,911 209,963 273,989 346,989 419,989 480,963 531,910 582,859 608,796 608,723 608,648 583,586 532,535 482,483 420,457 346,457 Z"/>
  </g>
  <g id="bullet-char-template-8211" transform="scale(0.00048828125,-0.00048828125)">
   <path d="M -4,459 L 1135,459 1135,606 -4,606 -4,459 Z"/>
  </g>
  <g id="bullet-char-template-61548" transform="scale(0.00048828125,-0.00048828125)">
   <path d="M 173,740 C 173,903 231,1043 346,1159 462,1274 601,1332 765,1332 928,1332 1067,1274 1183,1159 1299,1043 1357,903 1357,740 1357,577 1299,437 1183,322 1067,206 928,148 765,148 601,148 462,206 346,322 231,437 173,577 173,740 Z"/>
  </g>
 </defs>
 <g class="Page">
  <g class="com.sun.star.drawing.ClosedBezierShape">
   <g id="id3">
    <rect class="BoundingBox" stroke="none" fill="none" x="2398" y="5626" width="337" height="326"/>
    <path fill="rgb(186,229,247)" stroke="none" d="M 2398,5729 L 2461,5951 C 2560,5923 2653,5876 2734,5812 L 2589,5627 C 2533,5672 2468,5706 2398,5729 Z "/>
   </g>
  </g>
  <g class="com.sun.star.drawing.ClosedBezierShape">
   <g id="id4">
    <rect class="BoundingBox" stroke="none" fill="none" x="2587" y="5487" width="327" height="326"/>
    <path fill="rgb(0,97,156)" stroke="none" d="M 2913,5613 L 2714,5487 C 2692,5521 2665,5553 2637,5582 L 2637,5582 C 2636,5583 2635,5584 2634,5585 2630,5589 2626,5593 2622,5597 2611,5607 2599,5617 2588,5626 L 2733,5812 C 2802,5757 2864,5691 2913,5613 Z "/>
   </g>
  </g>
  <g class="com.sun.star.drawing.ClosedBezierShape">
   <g id="id5">
    <rect class="BoundingBox" stroke="none" fill="none" x="1423" y="4375" width="1104" height="1461"/>
    <path fill="rgb(0,97,156)" stroke="none" d="M 2488,4417 C 2408,4389 2321,4375 2230,4375 1820,4375 1481,4680 1429,5077 1429,5078 1429,5079 1429,5081 1427,5098 1425,5116 1424,5133 1424,5137 1424,5141 1423,5145 1423,5149 1423,5153 1423,5158 1423,5164 1423,5170 1423,5176 1423,5178 1423,5180 1423,5182 1423,5193 1423,5204 1423,5215 1423,5217 1423,5219 1424,5221 1436,5474 1564,5696 1757,5835 1804,5771 1850,5707 1894,5646 1750,5542 1655,5373 1655,5182 1655,4864 1913,4608 2229,4608 2305,4608 2376,4622 2441,4648 L 2526,4431 C 2514,4426 2501,4421 2488,4417 Z "/>
   </g>
  </g>
  <g class="com.sun.star.drawing.ClosedBezierShape">
   <g id="id6">
    <rect class="BoundingBox" stroke="none" fill="none" x="980" y="4853" width="340" height="890"/>
    <path fill="rgb(81,199,238)" stroke="none" d="M 1244,4917 L 1024,4854 C 996,4956 981,5064 981,5176 L 981,5187 C 981,5196 981,5205 981,5214 986,5404 1033,5584 1114,5742 L 1319,5641 C 1249,5502 1210,5346 1210,5181 1210,5090 1222,5001 1244,4917 Z "/>
   </g>
  </g>
  <g class="com.sun.star.drawing.ClosedBezierShape">
   <g id="id7">
    <rect class="BoundingBox" stroke="none" fill="none" x="2505" y="6076" width="322" height="308"/>
    <path fill="rgb(0,158,224)" stroke="none" d="M 2826,6277 L 2717,6076 C 2650,6112 2578,6141 2505,6163 L 2568,6383 C 2659,6357 2745,6321 2826,6277 Z "/>
   </g>
  </g>
  <g class="com.sun.star.drawing.ClosedBezierShape">
   <g id="id8">
    <rect class="BoundingBox" stroke="none" fill="none" x="1458" y="5983" width="579" height="427"/>
    <path fill="rgb(81,199,238)" stroke="none" d="M 2036,6183 C 1871,6151 1724,6080 1599,5983 L 1458,6162 C 1610,6282 1791,6369 1994,6408 L 2036,6183 Z "/>
   </g>
  </g>
  <g class="com.sun.star.drawing.ClosedBezierShape">
   <g id="id9">
    <rect class="BoundingBox" stroke="none" fill="none" x="1992" y="6183" width="293" height="251"/>
    <path fill="rgb(186,229,247)" stroke="none" d="M 2284,6431 L 2272,6200 C 2194,6204 2114,6198 2034,6183 L 2033,6189 1993,6409 C 2090,6428 2188,6435 2284,6431 Z "/>
   </g>
  </g>
  <g class="com.sun.star.drawing.ClosedBezierShape">
   <g id="id10">
    <rect class="BoundingBox" stroke="none" fill="none" x="2272" y="6163" width="299" height="268"/>
    <path fill="rgb(0,97,156)" stroke="none" d="M 2570,6384 L 2506,6163 C 2430,6184 2352,6197 2272,6200 L 2283,6430 2283,6430 2283,6430 C 2381,6426 2477,6410 2570,6384 Z "/>
   </g>
  </g>
  <g class="com.sun.star.drawing.ClosedBezierShape">
   <g id="id11">
    <rect class="BoundingBox" stroke="none" fill="none" x="2990" y="5184" width="490" height="835"/>
    <path fill="rgb(0,158,224)" stroke="none" d="M 2991,5862 L 3158,6018 C 3238,5930 3307,5829 3360,5716 3441,5544 3479,5363 3479,5185 L 3250,5184 C 3250,5329 3218,5477 3152,5619 3109,5710 3054,5791 2991,5862 Z "/>
   </g>
  </g>
  <g class="com.sun.star.drawing.ClosedBezierShape">
   <g id="id12">
    <rect class="BoundingBox" stroke="none" fill="none" x="2713" y="5333" width="298" height="282"/>
    <path fill="rgb(186,229,247)" stroke="none" d="M 2759,5399 C 2746,5431 2731,5460 2714,5487 L 2912,5614 C 2938,5576 2960,5533 2978,5490 2991,5459 3002,5427 3010,5395 L 2782,5333 C 2776,5355 2768,5377 2759,5399 Z "/>
   </g>
  </g>
  <g class="com.sun.star.drawing.ClosedBezierShape">
   <g id="id13">
    <rect class="BoundingBox" stroke="none" fill="none" x="1656" y="4608" width="983" height="1148"/>
    <path fill="rgb(157,195,40)" stroke="none" d="M 2631,4772 C 2528,4670 2386,4608 2229,4608 1912,4608 1656,4864 1656,5181 1656,5499 1912,5755 2229,5755 2389,5755 2534,5690 2638,5584 L 2494,5439 C 2427,5509 2333,5552 2229,5552 2024,5552 1859,5385 1859,5181 1859,4977 2024,4811 2229,4811 2330,4811 2421,4851 2488,4917 L 2631,4772 Z "/>
   </g>
  </g>
  <g class="com.sun.star.drawing.ClosedBezierShape">
   <g id="id14">
    <rect class="BoundingBox" stroke="none" fill="none" x="1209" y="4636" width="869" height="1548"/>
    <path fill="rgb(0,158,224)" stroke="none" d="M 1366,4636 C 1266,4793 1209,4980 1209,5180 1209,5678 1565,6092 2036,6183 L 2077,5973 C 1704,5901 1422,5574 1422,5180 1422,5022 1469,4874 1548,4750 L 1366,4636 Z "/>
   </g>
  </g>
  <g class="com.sun.star.drawing.ClosedBezierShape">
   <g id="id15">
    <rect class="BoundingBox" stroke="none" fill="none" x="2713" y="4756" width="325" height="643"/>
    <path fill="rgb(0,97,156)" stroke="none" d="M 2912,4756 C 2844,4798 2777,4840 2713,4881 2795,5013 2824,5176 2782,5335 L 3009,5397 C 3069,5173 3029,4942 2912,4756 Z "/>
   </g>
  </g>
  <g class="com.sun.star.drawing.ClosedBezierShape">
   <g id="id16">
    <rect class="BoundingBox" stroke="none" fill="none" x="2385" y="4183" width="867" height="1272"/>
    <path fill="rgb(81,199,238)" stroke="none" d="M 2423,4183 L 2385,4390 C 2664,4442 2914,4667 3000,4949 3002,4956 3004,4963 3006,4969 3007,4971 3007,4973 3008,4975 3045,5109 3047,5256 3009,5398 L 3007,5397 3007,5397 C 3078,5417 3147,5436 3214,5454 3237,5369 3250,5279 3250,5186 3250,4949 3169,4732 3034,4559 L 3034,4559 C 2941,4438 2822,4340 2685,4272 2684,4271 2683,4271 2682,4270 2674,4266 2667,4263 2659,4259 2658,4259 2658,4258 2657,4258 2649,4254 2640,4251 2632,4247 2631,4246 2630,4246 2629,4246 2622,4243 2615,4240 2608,4237 2605,4236 2603,4235 2600,4234 2595,4232 2589,4229 2583,4227 2580,4226 2578,4225 2575,4224 2567,4222 2559,4219 2551,4216 2549,4215 2547,4215 2544,4214 2538,4212 2533,4210 2527,4208 2523,4207 2520,4206 2516,4205 2511,4204 2506,4202 2501,4201 2498,4200 2494,4199 2491,4198 2484,4196 2477,4195 2471,4193 2467,4192 2462,4191 2458,4190 2453,4189 2447,4187 2441,4186 2438,4185 2434,4185 2430,4184 2428,4183 2425,4183 2423,4183 Z "/>
   </g>
  </g>
  <g class="com.sun.star.drawing.ClosedBezierShape">
   <g id="id17">
    <rect class="BoundingBox" stroke="none" fill="none" x="1235" y="3935" width="1980" height="636"/>
    <path fill="rgb(0,97,156)" stroke="none" d="M 3214,4419 C 2987,4124 2630,3935 2229,3935 1823,3935 1461,4129 1235,4432 L 1415,4569 C 1601,4323 1897,4163 2229,4163 2557,4163 2849,4319 3036,4558 L 3214,4419 Z "/>
   </g>
  </g>
  <g class="com.sun.star.drawing.ClosedBezierShape">
   <g id="id18">
    <rect class="BoundingBox" stroke="none" fill="none" x="5462" y="4512" width="776" height="675"/>
    <path fill="rgb(0,97,156)" stroke="none" d="M 6237,4980 C 6237,4883 6209,4839 6178,4815 6157,4798 6138,4790 6088,4784 L 5723,4770 C 5700,4768 5679,4767 5663,4745 5659,4741 5652,4730 5652,4716 5652,4702 5660,4689 5663,4686 5677,4665 5699,4659 5722,4658 5756,4657 6155,4658 6189,4658 L 6189,4513 C 6136,4514 5658,4511 5633,4513 5582,4519 5538,4530 5503,4572 5493,4584 5484,4598 5478,4614 5463,4656 5463,4729 5463,4734 5463,4801 5480,4842 5499,4865 5528,4900 5570,4908 5582,4910 5591,4911 5600,4912 5609,4914 5637,4916 5665,4919 5694,4921 5782,4927 5873,4927 5962,4929 6005,4936 6024,4935 6038,4958 6046,4970 6047,4981 6047,4987 6047,5009 6031,5030 6012,5038 5993,5046 5966,5043 5960,5043 5926,5044 5628,5038 5484,5038 L 5484,5185 C 5652,5184 6017,5188 6078,5184 6120,5180 6153,5171 6181,5149 6191,5140 6198,5132 6206,5120 6225,5091 6237,5055 6237,4980 Z "/>
   </g>
  </g>
  <g class="com.sun.star.drawing.ClosedBezierShape">
   <g id="id19">
    <rect class="BoundingBox" stroke="none" fill="none" x="6345" y="4512" width="834" height="675"/>
    <path fill="rgb(0,97,156)" stroke="none" d="M 7178,4513 L 7002,4513 C 7002,4513 6918,4903 6912,4927 6903,4964 6877,5016 6823,5027 6795,5033 6762,5033 6762,5033 6762,5033 6727,5033 6699,5027 6645,5016 6619,4964 6610,4927 6604,4903 6521,4513 6521,4513 L 6345,4513 6447,4978 C 6499,5207 6706,5183 6762,5186 6816,5183 7023,5207 7075,4978 L 7178,4513 Z "/>
   </g>
  </g>
  <g class="com.sun.star.drawing.ClosedBezierShape">
   <g id="id20">
    <rect class="BoundingBox" stroke="none" fill="none" x="7277" y="4513" width="776" height="675"/>
    <path fill="rgb(0,97,156)" stroke="none" d="M 8051,4981 C 8051,4884 8023,4840 7992,4816 7971,4799 7952,4791 7902,4785 L 7537,4771 C 7514,4769 7493,4768 7477,4746 7473,4742 7466,4731 7466,4717 7466,4703 7474,4690 7477,4687 7491,4666 7513,4660 7536,4659 7570,4658 7969,4659 8003,4659 L 8003,4514 C 7950,4515 7472,4512 7447,4514 7396,4520 7352,4531 7317,4573 7307,4585 7298,4599 7292,4615 7277,4657 7277,4730 7277,4735 7277,4802 7294,4843 7313,4866 7342,4901 7384,4909 7396,4911 7405,4912 7414,4913 7423,4915 7451,4917 7479,4920 7508,4922 7596,4928 7687,4928 7776,4930 7819,4937 7838,4936 7852,4959 7860,4971 7861,4982 7861,4988 7861,5010 7845,5031 7826,5039 7807,5047 7780,5044 7774,5044 7740,5045 7442,5039 7298,5039 L 7298,5186 C 7466,5185 7831,5189 7892,5185 7934,5181 7967,5172 7995,5150 8005,5141 8012,5133 8020,5121 8039,5092 8051,5056 8051,4981 Z "/>
   </g>
  </g>
  <g class="com.sun.star.drawing.ClosedBezierShape">
   <g id="id21">
    <rect class="BoundingBox" stroke="none" fill="none" x="4519" y="4512" width="834" height="675"/>
    <path fill="rgb(0,97,156)" stroke="none" d="M 5352,5186 L 5249,4720 C 5197,4492 4990,4515 4936,4513 4880,4515 4673,4492 4621,4720 L 4519,5186 4695,5186 C 4695,5186 4714,5097 4734,5001 L 4894,5001 4937,4853 4766,4853 C 4776,4809 4783,4777 4784,4771 4793,4734 4819,4682 4873,4671 4901,4666 4936,4665 4936,4665 4936,4665 4969,4666 4997,4671 5051,4682 5077,4734 5086,4771 5092,4795 5176,5186 5176,5186 L 5352,5186 Z "/>
   </g>
  </g>
  <g class="com.sun.star.drawing.ClosedBezierShape">
   <g id="id22">
    <rect class="BoundingBox" stroke="none" fill="none" x="3702" y="4511" width="778" height="677"/>
    <path fill="rgb(0,97,156)" stroke="none" d="M 4478,4552 C 4396,4522 4300,4508 4198,4511 3915,4525 3694,4686 3702,4873 3711,5059 3947,5198 4230,5185 4263,5183 4294,5180 4325,5174 L 4370,4993 C 4324,5006 4274,5015 4219,5018 4030,5027 3874,4959 3869,4866 3865,4772 4014,4689 4203,4680 4293,4676 4375,4689 4438,4714 L 4478,4552 Z "/>
   </g>
  </g>
  <g class="com.sun.star.drawing.ClosedBezierShape">
   <g id="id23">
    <rect class="BoundingBox" stroke="none" fill="none" x="3810" y="5964" width="153" height="252"/>
    <path fill="rgb(0,97,156)" stroke="none" d="M 3904,5987 C 3913,5987 3921,5988 3930,5989 3939,5990 3946,5990 3954,5992 L 3956,5970 C 3952,5969 3947,5969 3942,5968 3938,5967 3932,5967 3927,5966 3921,5966 3916,5965 3910,5965 3905,5965 3899,5965 3894,5965 3880,5965 3869,5966 3858,5968 3847,5970 3838,5974 3831,5979 3824,5984 3819,5990 3815,5999 3811,6007 3810,6017 3810,6030 3810,6041 3811,6050 3814,6058 3817,6065 3822,6071 3828,6076 3834,6081 3841,6085 3850,6088 3859,6092 3868,6095 3879,6098 3888,6101 3895,6103 3902,6106 3908,6108 3914,6111 3919,6115 3923,6119 3928,6123 3930,6128 3933,6133 3934,6139 3934,6147 3934,6157 3933,6164 3930,6170 3927,6176 3922,6180 3916,6184 3911,6187 3905,6189 3898,6190 3890,6192 3882,6192 3874,6192 3869,6192 3864,6192 3860,6192 3855,6192 3850,6191 3844,6191 3839,6190 3834,6190 3829,6189 3824,6189 3819,6188 3814,6188 L 3811,6210 C 3816,6210 3821,6211 3825,6212 3830,6213 3835,6213 3840,6214 3845,6214 3851,6215 3857,6215 3862,6215 3868,6215 3875,6215 3889,6215 3901,6214 3912,6212 3922,6209 3932,6205 3940,6200 3947,6194 3953,6187 3956,6179 3960,6170 3962,6159 3962,6146 3962,6135 3960,6126 3957,6118 3954,6111 3949,6104 3943,6099 3937,6093 3930,6089 3921,6085 3912,6082 3903,6078 3893,6075 3883,6072 3874,6070 3867,6067 3860,6065 3854,6062 3850,6058 3844,6055 3841,6050 3839,6045 3837,6040 3836,6034 3836,6025 3836,6019 3837,6015 3839,6011 3841,6007 3843,6003 3846,6001 3850,5998 3853,5996 3858,5994 3862,5992 3866,5991 3871,5990 3876,5989 3881,5988 3887,5988 3893,5988 3898,5987 3904,5987 Z "/>
   </g>
  </g>
  <g class="com.sun.star.drawing.PolyPolygonShape">
   <g id="id24">
    <rect class="BoundingBox" stroke="none" fill="none" x="3993" y="5967" width="185" height="247"/>
    <path fill="rgb(0,97,156)" stroke="none" d="M 4098,6212 L 4098,6116 4177,5967 4149,5967 4084,6089 4022,5967 3993,5967 4070,6116 4070,6212 4098,6212 Z "/>
   </g>
  </g>
  <g class="com.sun.star.drawing.ClosedBezierShape">
   <g id="id25">
    <rect class="BoundingBox" stroke="none" fill="none" x="4202" y="5964" width="153" height="252"/>
    <path fill="rgb(0,97,156)" stroke="none" d="M 4296,5987 C 4305,5987 4313,5988 4322,5989 4331,5990 4338,5990 4346,5992 L 4348,5970 C 4344,5969 4339,5969 4334,5968 4329,5967 4324,5967 4319,5966 4313,5966 4308,5965 4302,5965 4297,5965 4291,5965 4286,5965 4272,5965 4260,5966 4250,5968 4239,5970 4230,5974 4223,5979 4216,5984 4211,5990 4207,5999 4203,6007 4202,6017 4202,6030 4202,6041 4203,6050 4206,6058 4209,6065 4214,6071 4220,6076 4226,6081 4233,6085 4242,6088 4251,6092 4260,6095 4271,6098 4280,6101 4287,6103 4294,6106 4300,6108 4306,6111 4311,6115 4315,6119 4320,6123 4322,6128 4325,6133 4326,6139 4326,6147 4326,6157 4325,6164 4322,6170 4319,6176 4314,6180 4308,6184 4303,6187 4297,6189 4290,6190 4282,6192 4274,6192 4266,6192 4261,6192 4256,6192 4252,6192 4247,6192 4242,6191 4236,6191 4231,6190 4226,6190 4221,6189 4216,6189 4211,6188 4206,6188 L 4203,6210 C 4208,6210 4213,6211 4217,6212 4222,6213 4227,6213 4232,6214 4237,6214 4243,6215 4249,6215 4254,6215 4260,6215 4267,6215 4280,6215 4293,6214 4304,6212 4314,6209 4324,6205 4332,6200 4339,6194 4345,6187 4348,6179 4352,6170 4354,6159 4354,6146 4354,6135 4352,6126 4349,6118 4346,6111 4341,6104 4335,6099 4329,6093 4322,6089 4313,6085 4304,6082 4295,6078 4285,6075 4275,6072 4266,6070 4259,6067 4252,6065 4246,6062 4242,6058 4236,6055 4233,6050 4231,6045 4229,6040 4228,6034 4228,6025 4228,6019 4229,6015 4231,6011 4233,6007 4235,6003 4238,6001 4242,5998 4245,5996 4250,5994 4254,5992 4258,5991 4263,5990 4268,5989 4273,5988 4279,5988 4285,5988 4290,5987 4296,5987 Z "/>
   </g>
  </g>
  <g class="com.sun.star.drawing.PolyPolygonShape">
   <g id="id26">
    <rect class="BoundingBox" stroke="none" fill="none" x="4385" y="5966" width="162" height="247"/>
    <path fill="rgb(0,97,156)" stroke="none" d="M 4546,5989 L 4546,5967 4385,5967 4385,5989 4451,5989 4451,6212 4479,6212 4479,5989 4546,5989 Z "/>
   </g>
  </g>
  <g class="com.sun.star.drawing.ClosedBezierShape">
   <g id="id27">
    <rect class="BoundingBox" stroke="none" fill="none" x="4584" y="5967" width="142" height="247"/>
    <path fill="rgb(0,97,156)" stroke="none" d="M 4725,5989 L 4725,5968 C 4720,5968 4714,5968 4709,5967 4704,5967 4698,5967 4693,5967 4688,5967 4683,5967 4678,5967 4673,5967 4669,5967 4665,5967 4658,5967 4650,5967 4643,5967 4637,5967 4630,5968 4625,5969 4619,5970 4613,5972 4608,5974 4603,5976 4599,5979 4595,5983 4591,5988 4589,5993 4587,5999 4585,6005 4584,6012 4584,6020 L 4584,6160 C 4584,6168 4585,6176 4587,6182 4589,6188 4591,6193 4595,6197 4599,6201 4603,6204 4608,6206 4613,6208 4619,6210 4625,6211 4630,6212 4637,6213 4643,6213 4650,6213 4658,6213 4665,6213 4669,6213 4674,6213 4679,6213 4684,6213 4689,6213 4694,6213 4700,6213 4705,6213 4710,6213 4715,6213 4720,6213 4725,6212 L 4725,6191 4664,6191 C 4656,6191 4649,6191 4643,6190 4638,6190 4633,6189 4629,6187 4625,6186 4622,6184 4620,6182 4617,6180 4615,6177 4614,6174 4613,6170 4612,6166 4611,6161 4611,6157 4610,6150 4610,6144 L 4610,6099 4720,6099 4720,6077 4610,6077 4610,6037 C 4610,6030 4611,6024 4611,6019 4612,6014 4613,6010 4614,6006 4615,6003 4617,6000 4620,5998 4622,5996 4625,5994 4629,5992 4633,5991 4638,5990 4643,5990 4649,5989 4656,5989 4664,5989 L 4725,5989 Z "/>
   </g>
  </g>
  <g class="com.sun.star.drawing.ClosedBezierShape">
   <g id="id28">
    <rect class="BoundingBox" stroke="none" fill="none" x="4770" y="5965" width="250" height="248"/>
    <path fill="rgb(0,97,156)" stroke="none" d="M 4893,6143 L 4821,5981 C 4818,5976 4815,5971 4812,5969 4808,5966 4804,5965 4800,5965 4795,5965 4791,5966 4788,5969 4785,5972 4784,5977 4783,5983 L 4770,6212 4795,6212 4807,6007 4877,6165 C 4879,6170 4881,6173 4884,6175 4886,6178 4889,6179 4893,6179 4898,6179 4901,6178 4903,6175 4905,6173 4908,6170 4910,6165 L 4980,6007 4991,6212 5018,6212 5005,5983 C 5004,5977 5003,5972 5000,5969 4997,5966 4993,5965 4987,5965 4983,5965 4980,5966 4976,5969 4973,5971 4970,5976 4967,5982 L 4893,6143 Z "/>
   </g>
  </g>
  <g class="com.sun.star.drawing.ClosedBezierShape">
   <g id="id29">
    <rect class="BoundingBox" stroke="none" fill="none" x="5061" y="5964" width="153" height="252"/>
    <path fill="rgb(0,97,156)" stroke="none" d="M 5155,5987 C 5164,5987 5172,5988 5181,5989 5190,5990 5197,5990 5205,5992 L 5207,5970 C 5203,5969 5198,5969 5193,5968 5188,5967 5183,5967 5178,5966 5172,5966 5167,5965 5161,5965 5156,5965 5150,5965 5145,5965 5131,5965 5119,5966 5109,5968 5098,5970 5089,5974 5082,5979 5075,5984 5070,5990 5066,5999 5062,6007 5061,6017 5061,6030 5061,6041 5062,6050 5065,6058 5068,6065 5073,6071 5079,6076 5085,6081 5092,6085 5101,6088 5110,6092 5119,6095 5130,6098 5139,6101 5146,6103 5153,6106 5159,6108 5165,6111 5170,6115 5174,6119 5179,6123 5181,6128 5184,6133 5185,6139 5185,6147 5185,6157 5184,6164 5181,6170 5178,6176 5173,6180 5167,6184 5162,6187 5156,6189 5149,6190 5141,6192 5133,6192 5125,6192 5120,6192 5115,6192 5111,6192 5106,6192 5101,6191 5095,6191 5090,6190 5085,6190 5080,6189 5075,6189 5070,6188 5065,6188 L 5062,6210 C 5067,6210 5072,6211 5076,6212 5081,6213 5086,6213 5091,6214 5096,6214 5102,6215 5108,6215 5113,6215 5119,6215 5126,6215 5139,6215 5152,6214 5163,6212 5173,6209 5183,6205 5191,6200 5198,6194 5204,6187 5207,6179 5211,6170 5213,6159 5213,6146 5213,6135 5211,6126 5208,6118 5205,6111 5200,6104 5194,6099 5188,6093 5181,6089 5172,6085 5163,6082 5154,6078 5144,6075 5134,6072 5125,6070 5118,6067 5111,6065 5105,6062 5101,6058 5095,6055 5092,6050 5090,6045 5088,6040 5087,6034 5087,6025 5087,6019 5088,6015 5090,6011 5092,6007 5094,6003 5097,6001 5101,5998 5104,5996 5109,5994 5113,5992 5117,5991 5122,5990 5127,5989 5132,5988 5138,5988 5144,5988 5149,5987 5155,5987 Z "/>
   </g>
  </g>
  <g class="com.sun.star.drawing.ClosedBezierShape">
   <g id="id30">
    <rect class="BoundingBox" stroke="none" fill="none" x="5355" y="5967" width="178" height="248"/>
    <path fill="rgb(0,97,156)" stroke="none" d="M 5532,6132 L 5532,5967 5506,5967 5506,6135 C 5506,6145 5505,6153 5502,6160 5500,6167 5497,6173 5492,6177 5486,6182 5479,6185 5472,6187 5464,6190 5454,6191 5443,6191 5432,6191 5423,6190 5415,6187 5407,6185 5401,6182 5395,6177 5390,6173 5387,6167 5384,6160 5382,6153 5381,6145 5381,6135 L 5381,5967 5355,5967 5355,6132 C 5355,6143 5355,6153 5357,6161 5359,6169 5362,6176 5365,6182 5369,6188 5373,6193 5379,6197 5384,6201 5390,6205 5396,6207 5404,6209 5411,6211 5418,6212 5426,6213 5435,6214 5443,6214 5457,6214 5469,6213 5480,6210 5491,6208 5501,6203 5508,6197 5516,6191 5522,6183 5526,6172 5530,6162 5532,6149 5532,6132 Z "/>
   </g>
  </g>
  <g class="com.sun.star.drawing.ClosedBezierShape">
   <g id="id31">
    <rect class="BoundingBox" stroke="none" fill="none" x="5590" y="5965" width="187" height="251"/>
    <path fill="rgb(0,97,156)" stroke="none" d="M 5751,6177 L 5630,5982 C 5626,5976 5622,5972 5619,5969 5615,5966 5611,5965 5606,5965 5604,5965 5601,5965 5599,5966 5597,5966 5596,5967 5594,5969 5593,5971 5592,5973 5591,5975 5590,5977 5590,5980 5590,5984 L 5590,6213 5614,6213 5614,6002 5735,6198 C 5739,6204 5743,6208 5746,6211 5750,6214 5754,6215 5759,6215 5761,6215 5764,6215 5766,6214 5768,6213 5769,6212 5771,6211 5772,6209 5774,6207 5774,6205 5775,6202 5776,6199 5776,6196 L 5776,5967 5751,5967 5751,6177 Z "/>
   </g>
  </g>
  <g class="com.sun.star.drawing.ClosedBezierShape">
   <g id="id32">
    <rect class="BoundingBox" stroke="none" fill="none" x="6059" y="5967" width="143" height="247"/>
    <path fill="rgb(0,97,156)" stroke="none" d="M 6200,5989 L 6200,5968 C 6195,5968 6189,5968 6184,5967 6179,5967 6173,5967 6168,5967 6163,5967 6158,5967 6153,5967 6148,5967 6144,5967 6140,5967 6133,5967 6125,5967 6118,5967 6112,5967 6105,5968 6100,5969 6094,5970 6088,5972 6083,5974 6078,5976 6074,5979 6070,5983 6066,5988 6064,5993 6062,5999 6060,6005 6059,6012 6059,6020 L 6059,6160 C 6059,6168 6060,6176 6062,6182 6064,6188 6066,6193 6070,6197 6074,6201 6078,6204 6083,6206 6088,6208 6094,6210 6100,6211 6105,6212 6112,6213 6118,6213 6125,6213 6133,6213 6140,6213 6144,6213 6149,6213 6154,6213 6159,6213 6164,6213 6169,6213 6175,6213 6180,6213 6185,6213 6190,6213 6195,6213 6200,6212 L 6200,6191 6139,6191 C 6131,6191 6124,6191 6118,6190 6113,6190 6108,6189 6104,6187 6100,6186 6097,6184 6095,6182 6092,6180 6090,6177 6089,6174 6088,6170 6087,6166 6086,6161 6086,6157 6085,6150 6085,6144 L 6085,6099 6195,6099 6195,6077 6085,6077 6085,6037 C 6085,6030 6086,6024 6086,6019 6087,6014 6088,6010 6089,6006 6090,6003 6092,6000 6095,5998 6097,5996 6100,5994 6104,5992 6108,5991 6113,5990 6118,5990 6124,5989 6131,5989 6139,5989 L 6200,5989 Z "/>
   </g>
  </g>
  <g class="com.sun.star.drawing.ClosedBezierShape">
   <g id="id33">
    <rect class="BoundingBox" stroke="none" fill="none" x="6247" y="5965" width="172" height="248"/>
    <path fill="rgb(0,97,156)" stroke="none" d="M 6391,6037 C 6391,6047 6389,6056 6386,6062 6383,6069 6379,6074 6373,6078 6367,6082 6360,6085 6352,6086 6343,6089 6334,6090 6322,6090 6318,6090 6315,6090 6311,6090 6308,6090 6304,6089 6300,6089 6296,6089 6292,6089 6288,6089 6284,6087 6279,6087 6274,6086 L 6274,5990 C 6283,5988 6292,5988 6300,5987 6309,5987 6316,5986 6323,5986 6336,5986 6347,5987 6355,5989 6364,5991 6370,5994 6376,5998 6381,6002 6385,6007 6387,6014 6390,6020 6391,6028 6391,6037 Z M 6391,6037 L 6391,6037 Z M 6418,6037 C 6418,6026 6417,6017 6414,6010 6412,6002 6409,5996 6405,5990 6400,5985 6396,5980 6390,5977 6384,5974 6378,5971 6370,5969 6363,5967 6356,5966 6348,5965 6340,5965 6331,5965 6322,5965 6309,5965 6296,5965 6283,5966 6270,5967 6258,5968 6248,5970 L 6248,6212 6274,6212 6274,6110 C 6277,6110 6281,6110 6285,6111 6290,6111 6294,6111 6299,6111 6304,6111 6308,6111 6313,6112 6317,6112 6321,6112 6325,6112 L 6328,6112 6386,6212 6417,6212 6358,6110 C 6367,6108 6375,6106 6382,6103 6390,6099 6396,6095 6401,6089 6406,6083 6410,6076 6413,6067 6416,6059 6418,6049 6418,6037 Z "/>
   </g>
  </g>
  <g class="com.sun.star.drawing.ClosedBezierShape">
   <g id="id34">
    <rect class="BoundingBox" stroke="none" fill="none" x="6461" y="5964" width="153" height="252"/>
    <path fill="rgb(0,97,156)" stroke="none" d="M 6555,5987 C 6564,5987 6572,5988 6581,5989 6590,5990 6597,5990 6605,5992 L 6607,5970 C 6603,5969 6598,5969 6593,5968 6589,5967 6583,5967 6578,5966 6572,5966 6567,5965 6561,5965 6556,5965 6550,5965 6545,5965 6531,5965 6520,5966 6509,5968 6498,5970 6489,5974 6482,5979 6475,5984 6470,5990 6466,5999 6462,6007 6461,6017 6461,6030 6461,6041 6462,6050 6465,6058 6468,6065 6473,6071 6479,6076 6485,6081 6492,6085 6501,6088 6510,6092 6519,6095 6530,6098 6539,6101 6546,6103 6553,6106 6559,6108 6565,6111 6570,6115 6574,6119 6579,6123 6581,6128 6584,6133 6585,6139 6585,6147 6585,6157 6584,6164 6581,6170 6578,6176 6573,6180 6567,6184 6562,6187 6556,6189 6549,6190 6541,6192 6533,6192 6525,6192 6520,6192 6515,6192 6511,6192 6506,6192 6501,6191 6495,6191 6490,6190 6485,6190 6480,6189 6475,6189 6470,6188 6465,6188 L 6462,6210 C 6467,6210 6472,6211 6476,6212 6481,6213 6486,6213 6491,6214 6496,6214 6502,6215 6508,6215 6513,6215 6519,6215 6526,6215 6539,6215 6552,6214 6563,6212 6573,6209 6583,6205 6591,6200 6598,6194 6604,6187 6607,6179 6611,6170 6613,6159 6613,6146 6613,6135 6611,6126 6608,6118 6605,6111 6600,6104 6594,6099 6588,6093 6581,6089 6572,6085 6563,6082 6554,6078 6544,6075 6534,6072 6525,6070 6518,6067 6511,6065 6505,6062 6501,6058 6495,6055 6492,6050 6490,6045 6488,6040 6487,6034 6487,6025 6487,6019 6488,6015 6490,6011 6492,6007 6494,6003 6497,6001 6501,5998 6504,5996 6509,5994 6513,5992 6517,5991 6522,5990 6527,5989 6532,5988 6538,5988 6544,5988 6549,5987 6555,5987 Z "/>
   </g>
  </g>
  <g class="com.sun.star.drawing.PolyPolygonShape">
   <g id="id35">
    <rect class="BoundingBox" stroke="none" fill="none" x="6643" y="5966" width="163" height="247"/>
    <path fill="rgb(0,97,156)" stroke="none" d="M 6805,5989 L 6805,5967 6644,5967 6644,5989 6710,5989 6710,6212 6738,6212 6738,5989 6805,5989 Z "/>
   </g>
  </g>
  <g class="com.sun.star.drawing.ClosedBezierShape">
   <g id="id36">
    <rect class="BoundingBox" stroke="none" fill="none" x="6803" y="5965" width="213" height="249"/>
    <path fill="rgb(0,97,156)" stroke="none" d="M 6953,6120 L 6864,6120 6908,5995 6953,6120 Z M 6953,6120 L 6953,6120 Z M 7015,6212 L 6931,5983 C 6926,5971 6919,5965 6909,5965 6899,5965 6892,5971 6888,5983 L 6803,6212 6830,6212 6855,6142 6960,6142 6986,6212 7015,6212 Z "/>
   </g>
  </g>
  <g class="com.sun.star.drawing.ClosedBezierShape">
   <g id="id37">
    <rect class="BoundingBox" stroke="none" fill="none" x="7053" y="5965" width="187" height="251"/>
    <path fill="rgb(0,97,156)" stroke="none" d="M 7214,6177 L 7093,5982 C 7089,5976 7085,5972 7082,5969 7078,5966 7074,5965 7069,5965 7067,5965 7064,5965 7062,5966 7060,5966 7059,5967 7057,5969 7056,5971 7055,5973 7054,5975 7053,5977 7053,5980 7053,5984 L 7053,6213 7077,6213 7077,6002 7198,6198 C 7202,6204 7206,6208 7209,6211 7213,6214 7217,6215 7222,6215 7224,6215 7227,6215 7229,6214 7231,6213 7232,6212 7234,6211 7235,6209 7237,6207 7237,6205 7238,6202 7239,6199 7239,6196 L 7239,5967 7214,5967 7214,6177 Z "/>
   </g>
  </g>
  <g class="com.sun.star.drawing.ClosedBezierShape">
   <g id="id38">
    <rect class="BoundingBox" stroke="none" fill="none" x="7297" y="5965" width="182" height="251"/>
    <path fill="rgb(0,97,156)" stroke="none" d="M 7451,6090 C 7451,6099 7451,6109 7451,6117 7451,6126 7450,6134 7448,6142 7446,6150 7444,6157 7440,6164 7437,6170 7431,6175 7425,6179 7418,6184 7410,6187 7400,6189 7391,6192 7379,6193 7364,6193 7361,6193 7358,6193 7355,6192 7351,6192 7348,6192 7344,6192 7340,6192 7337,6191 7333,6191 7330,6190 7326,6190 7323,6190 L 7323,5990 C 7326,5990 7330,5989 7333,5989 7337,5989 7340,5988 7344,5988 7348,5988 7351,5987 7355,5987 7358,5987 7361,5987 7364,5987 7379,5987 7391,5988 7400,5990 7410,5993 7418,5996 7425,6001 7431,6005 7437,6010 7440,6016 7444,6022 7446,6030 7448,6038 7450,6045 7451,6053 7451,6062 7451,6071 7451,6080 7451,6090 Z M 7451,6090 L 7451,6090 Z M 7478,6090 C 7478,6076 7478,6063 7477,6052 7476,6040 7474,6030 7471,6020 7468,6011 7464,6003 7459,5996 7454,5989 7448,5983 7440,5978 7431,5974 7422,5970 7411,5968 7400,5966 7387,5965 7372,5965 7359,5965 7346,5965 7332,5966 7319,5967 7307,5968 7297,5970 L 7297,6209 C 7307,6211 7319,6213 7332,6214 7346,6215 7359,6215 7372,6215 7387,6215 7400,6214 7411,6212 7422,6209 7431,6206 7440,6201 7448,6197 7454,6191 7459,6184 7464,6177 7468,6169 7471,6160 7474,6150 7476,6139 7477,6128 7478,6116 7478,6104 7478,6090 Z "/>
   </g>
  </g>
  <g class="com.sun.star.drawing.ClosedBezierShape">
   <g id="id39">
    <rect class="BoundingBox" stroke="none" fill="none" x="5831" y="5965" width="182" height="251"/>
    <path fill="rgb(0,97,156)" stroke="none" d="M 5985,6090 C 5985,6099 5985,6109 5985,6117 5985,6126 5984,6134 5982,6142 5980,6150 5978,6157 5974,6164 5971,6170 5965,6175 5959,6179 5952,6184 5944,6187 5934,6189 5925,6192 5913,6193 5898,6193 5895,6193 5892,6193 5889,6192 5885,6192 5882,6192 5878,6192 5874,6192 5871,6191 5867,6191 5864,6190 5860,6190 5857,6190 L 5857,5990 C 5860,5990 5864,5989 5867,5989 5871,5989 5874,5988 5878,5988 5882,5988 5885,5987 5889,5987 5892,5987 5895,5987 5898,5987 5913,5987 5925,5988 5934,5990 5944,5993 5952,5996 5959,6001 5965,6005 5971,6010 5974,6016 5978,6022 5980,6030 5982,6038 5984,6045 5985,6053 5985,6062 5985,6071 5985,6080 5985,6090 Z M 5985,6090 L 5985,6090 Z M 6012,6090 C 6012,6076 6012,6063 6011,6052 6010,6040 6008,6030 6005,6020 6002,6011 5998,6003 5993,5996 5988,5989 5982,5983 5974,5978 5965,5974 5956,5970 5945,5968 5934,5966 5921,5965 5906,5965 5893,5965 5880,5965 5866,5966 5853,5967 5841,5968 5831,5970 L 5831,6209 C 5841,6211 5853,6213 5866,6214 5880,6215 5893,6215 5906,6215 5921,6215 5934,6214 5945,6212 5956,6209 5965,6206 5974,6201 5982,6197 5988,6191 5993,6184 5998,6177 6002,6169 6005,6160 6008,6150 6010,6139 6011,6128 6012,6116 6012,6104 6012,6090 Z "/>
   </g>
  </g>
  <g class="com.sun.star.drawing.PolyPolygonShape">
   <g id="id40">
    <rect class="BoundingBox" stroke="none" fill="none" x="7531" y="5967" width="29" height="247"/>
    <path fill="rgb(0,97,156)" stroke="none" d="M 7531,5967 L 7531,6212 7559,6212 7559,5967 7531,5967 Z "/>
   </g>
  </g>
  <g class="com.sun.star.drawing.ClosedBezierShape">
   <g id="id41">
    <rect class="BoundingBox" stroke="none" fill="none" x="7617" y="5965" width="187" height="251"/>
    <path fill="rgb(0,97,156)" stroke="none" d="M 7778,6177 L 7657,5982 C 7653,5976 7649,5972 7646,5969 7642,5966 7638,5965 7633,5965 7631,5965 7628,5965 7626,5966 7624,5966 7623,5967 7621,5969 7620,5971 7619,5973 7618,5975 7617,5977 7617,5980 7617,5984 L 7617,6213 7641,6213 7641,6002 7762,6198 C 7766,6204 7770,6208 7773,6211 7777,6214 7781,6215 7786,6215 7788,6215 7791,6215 7793,6214 7795,6213 7796,6212 7798,6211 7799,6209 7801,6207 7801,6205 7802,6202 7803,6199 7803,6196 L 7803,5967 7778,5967 7778,6177 Z "/>
   </g>
  </g>
  <g class="com.sun.star.drawing.ClosedBezierShape">
   <g id="id42">
    <rect class="BoundingBox" stroke="none" fill="none" x="7855" y="5964" width="180" height="252"/>
    <path fill="rgb(0,97,156)" stroke="none" d="M 7961,6084 L 7961,6106 8007,6106 8007,6162 C 8007,6165 8007,6168 8006,6171 8006,6173 8006,6176 8005,6178 8004,6180 8002,6182 8001,6184 7999,6186 7996,6187 7993,6189 7990,6190 7985,6191 7981,6191 7976,6192 7970,6192 7964,6192 7951,6192 7941,6191 7932,6189 7923,6187 7916,6184 7910,6181 7904,6177 7898,6172 7894,6166 7891,6160 7888,6154 7886,6145 7885,6138 7883,6129 7883,6120 7882,6111 7882,6101 7882,6090 7882,6079 7882,6069 7883,6059 7883,6050 7884,6042 7886,6034 7888,6026 7891,6019 7894,6013 7898,6008 7904,6003 7910,5999 7916,5995 7923,5992 7932,5990 7941,5988 7951,5988 7964,5988 7968,5988 7973,5988 7977,5988 7982,5988 7987,5988 7993,5989 7998,5989 8003,5989 8009,5990 8014,5990 8019,5991 8023,5992 L 8026,5970 C 8015,5968 8004,5967 7991,5966 7978,5965 7966,5965 7953,5965 7940,5965 7929,5966 7919,5968 7909,5970 7900,5973 7892,5977 7885,5982 7879,5987 7874,5994 7869,6001 7865,6009 7862,6018 7860,6028 7857,6038 7856,6050 7855,6062 7855,6075 7855,6090 7855,6104 7855,6117 7856,6129 7857,6141 7860,6151 7862,6162 7865,6171 7869,6179 7874,6185 7879,6192 7885,6198 7892,6202 7900,6207 7909,6210 7919,6212 7929,6214 7940,6215 7953,6215 7961,6215 7968,6215 7975,6215 7982,6215 7989,6214 7995,6213 8001,6212 8006,6211 8011,6209 8015,6208 8019,6205 8023,6202 8026,6199 8029,6195 8031,6191 8032,6187 8033,6181 8033,6175 L 8033,6084 7961,6084 Z "/>
   </g>
  </g>
  <g class="com.sun.star.drawing.ClosedBezierShape">
   <g id="id43">
    <rect class="BoundingBox" stroke="none" fill="none" x="3817" y="5482" width="3737" height="251"/>
    <path fill="rgb(0,97,156)" stroke="none" d="M 7372,5487 L 7372,5727 C 7383,5728 7395,5730 7408,5731 7421,5732 7434,5732 7447,5732 7462,5732 7475,5731 7486,5729 7497,5727 7506,5723 7514,5718 7522,5714 7528,5708 7533,5701 7538,5694 7542,5686 7545,5677 7548,5667 7550,5656 7551,5645 7552,5633 7552,5621 7552,5607 7552,5593 7552,5580 7551,5569 7550,5557 7548,5547 7545,5537 7542,5528 7538,5520 7533,5513 7528,5506 7522,5500 7514,5495 7506,5491 7497,5487 7486,5485 7475,5483 7462,5482 7447,5482 7434,5482 7421,5482 7408,5483 7395,5484 7383,5485 7372,5487 Z M 7372,5487 L 7372,5487 Z M 7439,5504 C 7454,5504 7466,5505 7475,5508 7485,5510 7493,5513 7500,5518 7506,5522 7511,5527 7514,5533 7518,5539 7520,5547 7522,5555 7524,5562 7525,5570 7525,5579 7525,5588 7525,5597 7525,5607 7525,5616 7525,5626 7525,5634 7525,5643 7524,5651 7522,5659 7520,5667 7518,5674 7514,5681 7511,5687 7506,5692 7500,5696 7493,5701 7485,5704 7475,5706 7466,5709 7454,5710 7439,5710 7436,5710 7433,5710 7430,5710 7426,5709 7423,5709 7419,5709 7416,5709 7413,5708 7409,5708 7406,5707 7402,5707 7399,5707 L 7399,5507 C 7402,5507 7406,5506 7409,5506 7413,5506 7416,5505 7419,5505 7423,5505 7426,5504 7430,5504 7433,5504 7436,5504 7439,5504 Z M 7439,5504 L 7439,5504 Z M 7324,5506 L 7324,5485 C 7319,5485 7313,5484 7308,5484 7303,5484 7297,5484 7292,5484 7287,5484 7282,5484 7277,5483 7272,5483 7268,5483 7264,5483 7257,5483 7250,5484 7243,5484 7237,5484 7230,5485 7224,5486 7219,5487 7213,5489 7208,5491 7203,5493 7199,5496 7195,5500 7191,5504 7189,5509 7187,5515 7185,5521 7183,5529 7183,5537 L 7183,5677 C 7183,5685 7185,5693 7187,5699 7189,5705 7191,5710 7195,5714 7199,5718 7203,5721 7208,5723 7213,5725 7219,5727 7224,5728 7230,5729 7237,5730 7243,5730 7250,5730 7257,5730 7264,5730 7268,5730 7273,5730 7278,5730 7283,5730 7288,5730 7293,5730 7298,5730 7304,5730 7309,5730 7314,5730 7319,5729 7324,5729 L 7324,5708 7263,5708 C 7255,5708 7249,5708 7243,5707 7238,5707 7233,5706 7229,5704 7225,5703 7222,5701 7220,5699 7217,5697 7215,5694 7214,5691 7213,5687 7212,5683 7211,5678 7211,5674 7210,5667 7210,5661 L 7210,5616 7319,5616 7319,5594 7210,5594 7210,5554 C 7210,5547 7211,5540 7211,5536 7212,5531 7213,5527 7214,5523 7215,5520 7217,5517 7220,5515 7222,5512 7225,5511 7229,5509 7233,5508 7238,5507 7243,5507 7249,5506 7255,5506 7263,5506 L 7324,5506 Z M 7324,5506 L 7324,5506 Z M 7147,5727 L 7144,5706 C 7137,5707 7130,5708 7123,5708 7116,5709 7109,5709 7101,5709 7089,5709 7079,5708 7070,5706 7061,5704 7054,5702 7048,5698 7042,5694 7037,5689 7033,5683 7030,5678 7027,5671 7025,5662 7023,5655 7022,5646 7021,5637 7021,5628 7021,5618 7021,5607 7021,5596 7021,5586 7021,5577 7022,5567 7023,5559 7025,5551 7027,5543 7029,5536 7033,5531 7037,5525 7041,5520 7047,5516 7053,5512 7061,5509 7070,5507 7078,5505 7089,5504 7101,5504 7109,5504 7116,5505 7123,5506 7130,5506 7137,5507 7144,5508 L 7147,5487 C 7139,5485 7130,5484 7121,5483 7112,5482 7102,5482 7091,5482 7078,5482 7066,5483 7056,5485 7046,5487 7038,5490 7031,5494 7023,5499 7017,5504 7013,5511 7008,5518 7004,5526 7001,5535 6998,5545 6996,5556 6995,5568 6994,5579 6993,5592 6993,5607 6993,5621 6994,5634 6995,5646 6996,5658 6998,5668 7001,5679 7004,5688 7008,5696 7013,5702 7017,5709 7023,5715 7031,5719 7038,5724 7046,5727 7056,5729 7066,5731 7078,5732 7091,5732 7102,5732 7112,5732 7121,5731 7130,5730 7139,5728 7147,5727 Z M 7147,5727 L 7147,5727 Z M 6916,5694 L 6796,5499 C 6792,5493 6789,5489 6785,5486 6781,5483 6777,5482 6772,5482 6770,5482 6767,5482 6765,5483 6763,5483 6762,5484 6760,5486 6759,5488 6758,5490 6757,5492 6756,5494 6756,5497 6756,5501 L 6756,5730 6780,5730 6780,5519 6900,5715 C 6904,5721 6908,5725 6911,5728 6915,5731 6919,5732 6924,5732 6927,5732 6929,5732 6931,5731 6933,5730 6935,5729 6936,5728 6938,5726 6939,5724 6939,5722 6940,5719 6941,5716 6941,5713 L 6941,5484 6916,5484 6916,5694 Z M 6916,5694 L 6916,5694 Z M 6655,5637 L 6565,5637 6609,5512 6655,5637 Z M 6655,5637 L 6655,5637 Z M 6505,5730 L 6532,5730 6557,5659 6662,5659 6688,5730 6716,5730 6633,5500 C 6628,5488 6621,5482 6610,5482 6601,5482 6593,5488 6589,5500 L 6505,5730 Z M 6505,5730 L 6505,5730 Z M 6429,5714 L 6508,5484 6481,5484 6409,5698 6337,5484 6309,5484 6388,5714 C 6390,5720 6393,5725 6396,5728 6400,5731 6404,5732 6408,5732 6413,5732 6417,5731 6421,5728 6424,5725 6427,5720 6429,5714 Z M 6429,5714 L 6429,5714 Z M 6100,5487 L 6100,5727 C 6111,5728 6123,5730 6136,5731 6148,5732 6161,5732 6174,5732 6189,5732 6202,5731 6213,5729 6224,5727 6234,5723 6242,5718 6249,5714 6256,5708 6261,5701 6266,5694 6270,5686 6272,5677 6275,5667 6277,5656 6278,5645 6279,5633 6280,5621 6280,5607 6280,5593 6279,5580 6278,5569 6277,5557 6275,5547 6272,5537 6270,5528 6266,5520 6261,5513 6256,5506 6249,5500 6242,5495 6234,5491 6224,5487 6213,5485 6202,5483 6189,5482 6174,5482 6161,5482 6148,5482 6136,5483 6123,5484 6111,5485 6100,5487 Z M 6100,5487 L 6100,5487 Z M 6167,5504 C 6181,5504 6193,5505 6203,5508 6213,5510 6221,5513 6227,5518 6234,5522 6239,5527 6242,5533 6245,5539 6248,5547 6250,5555 6251,5562 6252,5570 6253,5579 6253,5588 6253,5597 6253,5607 6253,5616 6253,5626 6253,5634 6252,5643 6251,5651 6250,5659 6248,5667 6245,5674 6242,5681 6239,5687 6234,5692 6227,5696 6221,5701 6213,5704 6203,5706 6193,5709 6181,5710 6167,5710 6164,5710 6161,5710 6157,5710 6154,5709 6150,5709 6147,5709 6144,5709 6140,5708 6137,5708 6133,5707 6130,5707 6127,5707 L 6127,5507 C 6130,5507 6133,5506 6137,5506 6140,5506 6144,5505 6147,5505 6150,5505 6154,5504 6157,5504 6161,5504 6164,5504 6167,5504 Z M 6167,5504 L 6167,5504 Z M 6000,5637 L 5911,5637 5955,5512 6000,5637 Z M 6000,5637 L 6000,5637 Z M 5851,5730 L 5878,5730 5903,5659 6007,5659 6032,5730 6061,5730 5978,5500 C 5973,5488 5966,5482 5956,5482 5946,5482 5939,5488 5935,5500 L 5851,5730 Z M 5851,5730 L 5851,5730 Z M 5579,5604 L 5579,5507 C 5588,5505 5596,5505 5605,5504 5613,5504 5621,5503 5628,5503 5640,5503 5650,5504 5659,5506 5667,5508 5674,5511 5679,5515 5685,5519 5689,5524 5691,5531 5693,5537 5695,5546 5695,5555 5695,5565 5693,5574 5690,5580 5687,5587 5683,5592 5677,5596 5671,5600 5664,5603 5655,5604 5647,5606 5637,5607 5627,5607 5623,5607 5619,5607 5616,5607 5612,5607 5609,5606 5605,5606 5601,5606 5597,5606 5593,5606 5588,5605 5584,5605 5579,5604 Z M 5579,5604 L 5579,5604 Z M 5552,5730 L 5579,5730 5579,5627 C 5582,5627 5586,5627 5590,5628 5594,5628 5599,5628 5604,5628 5608,5628 5613,5628 5618,5629 5622,5629 5626,5629 5629,5629 L 5633,5629 5690,5730 5721,5730 5661,5627 C 5670,5625 5679,5623 5686,5620 5693,5616 5700,5612 5705,5606 5710,5601 5714,5594 5717,5585 5720,5577 5721,5567 5721,5555 5721,5543 5720,5534 5718,5527 5716,5519 5712,5513 5708,5507 5704,5502 5699,5498 5693,5494 5688,5491 5681,5488 5674,5486 5667,5484 5660,5483 5652,5482 5644,5482 5635,5482 5627,5482 5613,5482 5600,5482 5588,5483 5575,5484 5563,5485 5552,5487 L 5552,5730 Z M 5552,5730 L 5552,5730 Z M 5405,5710 C 5394,5710 5385,5708 5377,5706 5370,5704 5363,5701 5358,5696 5353,5692 5350,5687 5347,5681 5344,5675 5342,5667 5341,5660 5339,5652 5338,5644 5338,5635 5338,5626 5338,5617 5338,5607 5338,5597 5338,5587 5338,5579 5338,5570 5339,5561 5341,5554 5342,5546 5344,5539 5347,5533 5350,5527 5353,5522 5358,5517 5363,5513 5370,5510 5377,5508 5385,5505 5394,5504 5405,5504 5415,5504 5424,5505 5432,5508 5439,5510 5446,5513 5451,5517 5456,5522 5459,5527 5462,5533 5465,5539 5467,5546 5469,5554 5470,5561 5471,5570 5471,5579 5471,5587 5472,5597 5472,5607 5472,5617 5471,5626 5471,5635 5471,5644 5470,5652 5469,5660 5467,5667 5465,5675 5462,5681 5459,5687 5456,5692 5451,5696 5446,5701 5439,5704 5432,5706 5424,5708 5415,5710 5405,5710 Z M 5405,5710 L 5405,5710 Z M 5405,5732 C 5417,5732 5428,5731 5437,5729 5447,5727 5455,5724 5462,5720 5469,5715 5475,5710 5479,5703 5484,5696 5488,5689 5491,5679 5494,5670 5496,5659 5497,5647 5498,5635 5499,5622 5499,5607 5499,5592 5498,5579 5497,5567 5496,5555 5494,5545 5491,5534 5488,5525 5484,5517 5479,5511 5475,5504 5469,5498 5462,5494 5455,5490 5447,5487 5437,5485 5428,5483 5417,5482 5405,5482 5392,5482 5381,5483 5372,5485 5363,5487 5354,5490 5347,5494 5340,5498 5335,5504 5330,5511 5325,5517 5321,5525 5318,5534 5315,5545 5313,5555 5312,5567 5311,5579 5310,5592 5310,5607 5310,5622 5311,5635 5312,5647 5313,5659 5315,5670 5318,5679 5321,5689 5325,5696 5330,5703 5335,5710 5340,5715 5347,5720 5354,5724 5363,5727 5372,5729 5381,5731 5392,5732 5405,5732 Z M 5405,5732 L 5405,5732 Z M 5131,5730 L 5157,5730 5157,5616 5266,5616 5266,5594 5157,5594 5157,5554 C 5157,5547 5158,5540 5158,5536 5159,5531 5160,5527 5161,5523 5162,5520 5164,5517 5167,5515 5169,5512 5172,5511 5176,5509 5180,5508 5185,5507 5190,5507 5196,5506 5202,5506 5210,5506 L 5271,5506 5271,5485 C 5266,5485 5261,5484 5255,5484 5250,5484 5244,5484 5239,5484 5234,5484 5229,5483 5224,5483 5219,5483 5215,5483 5211,5483 5204,5483 5197,5484 5190,5484 5184,5484 5178,5485 5172,5486 5166,5487 5160,5489 5155,5491 5150,5493 5146,5496 5142,5500 5139,5504 5136,5509 5134,5515 5132,5521 5131,5529 5131,5537 L 5131,5730 Z M 5131,5730 L 5131,5730 Z M 4840,5604 L 4840,5507 C 4849,5505 4857,5505 4866,5504 4874,5504 4882,5503 4889,5503 4901,5503 4911,5504 4920,5506 4928,5508 4935,5511 4940,5515 4946,5519 4949,5524 4952,5531 4954,5537 4955,5546 4955,5555 4955,5565 4954,5574 4951,5580 4948,5587 4943,5592 4938,5596 4932,5600 4925,5603 4916,5604 4908,5606 4898,5607 4887,5607 4884,5607 4880,5607 4877,5607 4873,5607 4869,5606 4866,5606 4862,5606 4858,5606 4853,5606 4849,5605 4845,5605 4840,5604 Z M 4840,5604 L 4840,5604 Z M 4813,5730 L 4840,5730 4840,5627 C 4843,5627 4846,5627 4851,5628 4855,5628 4860,5628 4864,5628 4869,5628 4874,5628 4878,5629 4883,5629 4887,5629 4890,5629 L 4894,5629 4950,5730 4982,5730 4922,5627 C 4931,5625 4939,5623 4947,5620 4954,5616 4960,5612 4966,5606 4971,5601 4975,5594 4978,5585 4981,5577 4982,5567 4982,5555 4982,5543 4981,5534 4979,5527 4976,5519 4973,5513 4969,5507 4965,5502 4960,5498 4954,5494 4948,5491 4942,5488 4935,5486 4928,5484 4920,5483 4912,5482 4904,5482 4896,5482 4887,5482 4874,5482 4861,5482 4848,5483 4836,5484 4824,5485 4813,5487 L 4813,5730 Z M 4813,5730 L 4813,5730 Z M 4764,5506 L 4764,5485 C 4759,5485 4754,5484 4748,5484 4742,5484 4737,5484 4731,5484 4726,5484 4721,5484 4716,5483 4711,5483 4707,5483 4703,5483 4696,5483 4689,5484 4683,5484 4676,5484 4670,5485 4664,5486 4658,5487 4653,5489 4648,5491 4643,5493 4638,5496 4635,5500 4631,5504 4628,5509 4626,5515 4624,5521 4623,5529 4623,5537 L 4623,5677 C 4623,5685 4624,5693 4626,5699 4628,5705 4631,5710 4635,5714 4638,5718 4643,5721 4648,5723 4653,5725 4658,5727 4664,5728 4670,5729 4676,5730 4683,5730 4690,5730 4696,5730 4703,5730 4708,5730 4713,5730 4718,5730 4723,5730 4728,5730 4733,5730 4738,5730 4743,5730 4748,5730 4754,5730 4759,5729 4764,5729 L 4764,5708 4702,5708 C 4695,5708 4688,5708 4683,5707 4677,5707 4672,5706 4669,5704 4665,5703 4662,5701 4659,5699 4657,5697 4655,5694 4653,5691 4652,5687 4651,5683 4651,5678 4650,5674 4650,5667 4650,5661 L 4650,5616 4759,5616 4759,5594 4650,5594 4650,5554 C 4650,5547 4650,5540 4651,5536 4651,5531 4652,5527 4653,5523 4655,5520 4657,5517 4659,5515 4662,5512 4665,5511 4669,5509 4672,5508 4677,5507 4683,5507 4688,5506 4695,5506 4702,5506 L 4764,5506 Z M 4764,5506 L 4764,5506 Z M 4584,5506 L 4584,5484 4424,5484 4424,5506 4491,5506 4491,5730 4518,5730 4518,5506 4584,5506 Z M 4584,5506 L 4584,5506 Z M 4357,5694 L 4236,5499 C 4233,5493 4229,5489 4225,5486 4222,5483 4217,5482 4213,5482 4210,5482 4208,5482 4206,5483 4204,5483 4202,5484 4201,5486 4199,5488 4198,5490 4197,5492 4197,5494 4196,5497 4196,5501 L 4196,5730 4221,5730 4221,5519 4341,5715 C 4345,5721 4348,5725 4352,5728 4356,5731 4360,5732 4365,5732 4367,5732 4369,5732 4371,5731 4373,5730 4375,5729 4377,5728 4378,5726 4379,5724 4380,5722 4381,5719 4381,5716 4381,5713 L 4381,5484 4357,5484 4357,5694 Z M 4357,5694 L 4357,5694 Z M 4147,5506 L 4147,5485 C 4142,5485 4137,5484 4131,5484 4126,5484 4121,5484 4115,5484 4110,5484 4105,5484 4100,5483 4095,5483 4091,5483 4087,5483 4080,5483 4073,5484 4067,5484 4060,5484 4054,5485 4048,5486 4042,5487 4036,5489 4031,5491 4026,5493 4022,5496 4018,5500 4015,5504 4012,5509 4010,5515 4008,5521 4007,5529 4007,5537 L 4007,5677 C 4007,5685 4008,5693 4010,5699 4012,5705 4015,5710 4018,5714 4022,5718 4026,5721 4031,5723 4036,5725 4042,5727 4048,5728 4054,5729 4060,5730 4067,5730 4073,5730 4080,5730 4087,5730 4092,5730 4096,5730 4101,5730 4106,5730 4112,5730 4117,5730 4122,5730 4127,5730 4132,5730 4137,5730 4142,5729 4147,5729 L 4147,5708 4086,5708 C 4078,5708 4072,5708 4066,5707 4061,5707 4056,5706 4052,5704 4049,5703 4045,5701 4043,5699 4041,5697 4039,5694 4037,5691 4036,5687 4035,5683 4034,5678 4034,5674 4034,5667 4034,5661 L 4034,5616 4142,5616 4142,5594 4034,5594 4034,5554 C 4034,5547 4034,5540 4034,5536 4035,5531 4036,5527 4037,5523 4039,5520 4041,5517 4043,5515 4045,5512 4049,5511 4052,5509 4056,5508 4061,5507 4066,5507 4072,5506 4078,5506 4086,5506 L 4147,5506 Z M 4147,5506 L 4147,5506 Z M 3970,5727 L 3967,5706 C 3960,5707 3953,5708 3946,5708 3939,5709 3932,5709 3925,5709 3912,5709 3902,5708 3893,5706 3884,5704 3877,5702 3871,5698 3865,5694 3860,5689 3857,5683 3853,5678 3850,5671 3849,5662 3847,5655 3845,5646 3845,5637 3844,5628 3844,5618 3844,5607 3844,5596 3844,5586 3845,5577 3845,5567 3846,5559 3848,5551 3850,5543 3853,5536 3856,5531 3860,5525 3865,5520 3871,5516 3877,5512 3884,5509 3893,5507 3902,5505 3912,5504 3925,5504 3932,5504 3939,5505 3946,5506 3954,5506 3961,5507 3967,5508 L 3970,5487 C 3962,5485 3954,5484 3944,5483 3935,5482 3925,5482 3914,5482 3901,5482 3890,5483 3880,5485 3870,5487 3861,5490 3854,5494 3847,5499 3841,5504 3836,5511 3831,5518 3827,5526 3824,5535 3822,5545 3819,5556 3818,5568 3817,5579 3817,5592 3817,5607 3817,5621 3817,5634 3818,5646 3819,5658 3821,5668 3824,5679 3827,5688 3831,5696 3836,5702 3841,5709 3847,5715 3854,5719 3861,5724 3870,5727 3880,5729 3890,5731 3901,5732 3914,5732 3925,5732 3935,5732 3944,5731 3954,5730 3962,5728 3970,5727 Z "/>
   </g>
  </g>
 </g>
</svg>