<?xml version="1.0" encoding="UTF-8"?>
<!DOCTYPE svg PUBLIC "-//W3C//DTD SVG 1.1//EN" "http://www.w3.org/Graphics/SVG/1.1/DTD/svg11.dtd">
<svg version="1.2" width="39.58mm" height="16.17mm" viewBox="9771 4501 3958 1617" preserveAspectRatio="xMidYMid" fill-rule="evenodd" stroke-width="28.222" stroke-linejoin="round" xmlns="http://www.w3.org/2000/svg" xmlns:ooo="http://xml.openoffice.org/svg/export" xmlns:xlink="http://www.w3.org/1999/xlink" xmlns:presentation="http://sun.com/xmlns/staroffice/presentation" xmlns:smil="http://www.w3.org/2001/SMIL20/" xmlns:anim="urn:oasis:names:tc:opendocument:xmlns:animation:1.0" xmlns:svg="urn:oasis:names:tc:opendocument:xmlns:svg-compatible:1.0" xml:space="preserve">
 <defs class="EmbeddedBulletChars">
  <g id="bullet-char-template-57356" transform="scale(0.00048828125,-0.00048828125)">
   <path d="M 580,1141 L 1163,571 580,0 -4,571 580,1141 Z"/>
  </g>
  <g id="bullet-char-template-57354" transform="scale(0.00048828125,-0.00048828125)">
   <path d="M 8,1128 L 1137,1128 1137,0 8,0 8,1128 Z"/>
  </g>
  <g id="bullet-char-template-10146" transform="scale(0.00048828125,-0.00048828125)">
   <path d="M 174,0 L 602,739 174,1481 1456,739 174,0 Z M 1358,739 L 309,1346 659,739 1358,739 Z"/>
  </g>
  <g id="bullet-char-template-10132" transform="scale(0.00048828125,-0.00048828125)">
   <path d="M 2015,739 L 1276,0 717,0 1260,543 174,543 174,936 1260,936 717,1481 1274,1481 2015,739 Z"/>
  </g>
  <g id="bullet-char-template-10007" transform="scale(0.00048828125,-0.00048828125)">
   <path d="M 0,-2 C -7,14 -16,27 -25,37 L 356,567 C 262,823 215,952 215,954 215,979 228,992 255,992 264,992 276,990 289,987 310,991 331,999 354,1012 L 381,999 492,748 772,1049 836,1024 860,1049 C 881,1039 901,1025 922,1006 886,937 835,863 770,784 769,783 710,716 594,584 L 774,223 C 774,196 753,168 711,139 L 727,119 C 717,90 699,76 672,76 641,76 570,178 457,381 L 164,-76 C 142,-110 111,-127 72,-127 30,-127 9,-110 8,-76 1,-67 -2,-52 -2,-32 -2,-23 -1,-13 0,-2 Z"/>
  </g>
  <g id="bullet-char-template-10004" transform="scale(0.00048828125,-0.00048828125)">
   <path d="M 285,-33 C 182,-33 111,30 74,156 52,228 41,333 41,471 41,549 55,616 82,672 116,743 169,778 240,778 293,778 328,747 346,684 L 369,508 C 377,444 397,411 428,410 L 1163,1116 C 1174,1127 1196,1133 1229,1133 1271,1133 1292,1118 1292,1087 L 1292,965 C 1292,929 1282,901 1262,881 L 442,47 C 390,-6 338,-33 285,-33 Z"/>
  </g>
  <g id="bullet-char-template-9679" transform="scale(0.00048828125,-0.00048828125)">
   <path d="M 813,0 C 632,0 489,54 383,161 276,268 223,411 223,592 223,773 276,916 383,1023 489,1130 632,1184 813,1184 992,1184 1136,1130 1245,1023 1353,916 1407,772 1407,592 1407,412 1353,268 1245,161 1136,54 992,0 813,0 Z"/>
  </g>
  <g id="bullet-char-template-8226" transform="scale(0.00048828125,-0.00048828125)">
   <path d="M 346,457 C 273,457 209,483 155,535 101,586 74,649 74,723 74,796 101,859 155,911 209,963 273,989 346,989 419,989 480,963 531,910 582,859 608,796 608,723 608,648 583,586 532,535 482,483 420,457 346,457 Z"/>
  </g>
  <g id="bullet-char-template-8211" transform="scale(0.00048828125,-0.00048828125)">
   <path d="M -4,459 L 1135,459 1135,606 -4,606 -4,459 Z"/>
  </g>
  <g id="bullet-char-template-61548" transform="scale(0.00048828125,-0.00048828125)">
   <path d="M 173,740 C 173,903 231,1043 346,1159 462,1274 601,1332 765,1332 928,1332 1067,1274 1183,1159 1299,1043 1357,903 1357,740 1357,577 1299,437 1183,322 1067,206 928,148 765,148 601,148 462,206 346,322 231,437 173,577 173,740 Z"/>
  </g>
 </defs>
 <g class="Page">
  <g class="com.sun.star.drawing.PolyPolygonShape">
   <g id="id3">
    <rect class="BoundingBox" stroke="none" fill="none" x="9771" y="4799" width="851" height="381"/>
    <path fill="rgb(0,97,156)" stroke="none" d="M 9772,4799 L 9772,5179 9966,5179 9966,4967 10426,4967 10426,5179 10621,5179 10621,4799 9772,4799 Z "/>
   </g>
  </g>
  <g class="Group">
   <g class="com.sun.star.drawing.ClosedBezierShape">
    <g id="id4">
     <rect class="BoundingBox" stroke="none" fill="none" x="12693" y="4501" width="822" height="679"/>
     <path fill="rgb(0,97,156)" stroke="none" d="M 13513,4690 C 13513,4576 13473,4502 13323,4502 L 12693,4502 12693,4670 13234,4670 C 13295,4670 13323,4684 13323,4730 L 13323,4739 C 13323,4776 13304,4798 13251,4798 L 12693,4798 12693,5179 12887,5179 12887,4968 13236,4968 C 13296,4968 13315,4990 13315,5057 L 13315,5179 13510,5179 13510,5014 C 13510,4910 13462,4885 13404,4874 L 13404,4872 C 13494,4851 13513,4800 13513,4715 L 13513,4690 Z "/>
    </g>
   </g>
   <g class="com.sun.star.drawing.ClosedBezierShape">
    <g id="id5">
     <rect class="BoundingBox" stroke="none" fill="none" x="11672" y="4501" width="895" height="679"/>
     <path fill="rgb(0,97,156)" stroke="none" d="M 12302,4502 L 11672,4502 11672,4670 12254,4670 C 12337,4670 12370,4694 12370,4784 L 12370,4896 C 12370,4987 12337,5010 12254,5010 L 11866,5010 11866,4798 11672,4798 11672,5179 12302,5179 C 12496,5179 12565,5115 12565,4958 L 12565,4723 C 12565,4566 12496,4502 12302,4502 Z "/>
    </g>
   </g>
   <g class="com.sun.star.drawing.PolyPolygonShape">
    <g id="id6">
     <rect class="BoundingBox" stroke="none" fill="none" x="10424" y="4502" width="198" height="170"/>
     <path fill="rgb(0,97,156)" stroke="none" d="M 10425,4671 L 10621,4671 10621,4502 10425,4502 10425,4671 Z "/>
    </g>
   </g>
   <g class="com.sun.star.drawing.PolyPolygonShape">
    <g id="id7">
     <rect class="BoundingBox" stroke="none" fill="none" x="9772" y="4502" width="197" height="170"/>
     <path fill="rgb(238,115,26)" stroke="none" d="M 9772,4671 L 9968,4671 9968,4502 9772,4502 9772,4671 Z "/>
    </g>
   </g>
   <g class="com.sun.star.drawing.PolyPolygonShape">
    <g id="id8">
     <rect class="BoundingBox" stroke="none" fill="none" x="10749" y="4502" width="798" height="170"/>
     <path fill="rgb(0,97,156)" stroke="none" d="M 10749,4671 L 11545,4671 11545,4502 10749,4502 10749,4671 Z "/>
    </g>
   </g>
  </g>
  <g class="com.sun.star.drawing.PolyPolygonShape">
   <g id="id9">
    <rect class="BoundingBox" stroke="none" fill="none" x="10749" y="4799" width="798" height="381"/>
    <path fill="rgb(0,97,156)" stroke="none" d="M 11363,4799 L 11048,4799 10749,5010 10749,5179 11545,5179 11545,5010 11064,5010 11363,4799 Z "/>
   </g>
  </g>
  <g class="com.sun.star.drawing.ClosedBezierShape">
   <g id="id10">
    <rect class="BoundingBox" stroke="none" fill="none" x="11861" y="5563" width="1652" height="216"/>
    <path fill="rgb(0,97,156)" stroke="none" d="M 12022,5564 L 11864,5564 11864,5584 11993,5584 11993,5585 11861,5754 11861,5775 12025,5775 12025,5755 11890,5755 11890,5754 12022,5584 12022,5564 Z M 12022,5564 L 12022,5564 Z M 12119,5584 L 12230,5584 12230,5564 12095,5564 12095,5775 12230,5775 12230,5755 12119,5755 12119,5676 12225,5676 12225,5656 12119,5656 12119,5584 Z M 12119,5584 L 12119,5584 Z M 12485,5564 L 12462,5564 12462,5725 C 12462,5735 12462,5746 12462,5756 L 12461,5756 C 12444,5728 12444,5728 12421,5690 L 12344,5564 12305,5564 12305,5775 12329,5775 12329,5615 C 12329,5605 12329,5594 12329,5584 L 12330,5584 12339,5600 C 12343,5607 12347,5613 12358,5631 L 12447,5775 12485,5775 12485,5564 Z M 12485,5564 L 12485,5564 Z M 12649,5586 L 12718,5586 12718,5564 12556,5564 12556,5586 12625,5586 12625,5775 12649,5775 12649,5586 Z M 12649,5586 L 12649,5586 Z M 12789,5775 L 12813,5775 12813,5691 12884,5691 C 12901,5691 12907,5692 12914,5698 12921,5704 12924,5712 12924,5727 L 12924,5775 12948,5775 12948,5722 C 12948,5696 12937,5683 12914,5681 L 12914,5681 C 12943,5676 12951,5662 12951,5624 12951,5580 12934,5564 12889,5564 L 12789,5564 12789,5775 Z M 12789,5775 L 12789,5775 Z M 12813,5669 L 12813,5584 12889,5584 C 12906,5584 12917,5588 12921,5594 12926,5600 12927,5610 12927,5631 12927,5660 12916,5669 12881,5669 L 12813,5669 Z M 12813,5669 L 12813,5669 Z M 13172,5564 L 13172,5712 C 13172,5752 13166,5757 13110,5757 13077,5757 13065,5754 13058,5744 13054,5738 13053,5730 13053,5712 L 13053,5564 13029,5564 13029,5712 C 13029,5748 13036,5762 13058,5772 13070,5776 13081,5778 13114,5778 13129,5778 13142,5777 13152,5776 13168,5774 13183,5765 13190,5752 13195,5743 13196,5733 13196,5712 L 13196,5564 13172,5564 Z M 13172,5564 L 13172,5564 Z M 13511,5564 L 13469,5564 13413,5701 C 13407,5716 13401,5731 13395,5745 L 13394,5745 C 13389,5731 13383,5716 13377,5701 L 13320,5564 13279,5564 13279,5775 13303,5775 13303,5606 C 13303,5598 13303,5590 13303,5582 L 13303,5582 C 13306,5589 13308,5595 13311,5602 L 13383,5775 13407,5775 13479,5600 C 13482,5593 13483,5590 13483,5588 13484,5587 13484,5587 13487,5580 L 13487,5580 C 13487,5589 13487,5597 13487,5606 L 13487,5775 13511,5775 13511,5564 Z "/>
   </g>
  </g>
  <g class="com.sun.star.drawing.PolyPolygonShape">
   <g id="id11">
    <rect class="BoundingBox" stroke="none" fill="none" x="11536" y="5563" width="171" height="214"/>
    <path fill="rgb(0,97,156)" stroke="none" d="M 11704,5564 L 11541,5564 11541,5598 11652,5598 11652,5599 11536,5742 11536,5776 11706,5776 11706,5742 11587,5742 11587,5741 11704,5598 11704,5564 Z "/>
   </g>
  </g>
  <g class="com.sun.star.drawing.PolyPolygonShape">
   <g id="id12">
    <rect class="BoundingBox" stroke="none" fill="none" x="11331" y="5564" width="166" height="213"/>
    <path fill="rgb(0,97,156)" stroke="none" d="M 11433,5599 L 11496,5599 11496,5564 11331,5564 11331,5599 11393,5599 11393,5776 11433,5776 11433,5599 Z "/>
   </g>
  </g>
  <g class="com.sun.star.drawing.PolyPolygonShape">
   <g id="id13">
    <rect class="BoundingBox" stroke="none" fill="none" x="11182" y="5564" width="141" height="214"/>
    <path fill="rgb(0,97,156)" stroke="none" d="M 11223,5564 L 11182,5564 11182,5776 11322,5776 11322,5741 11223,5741 11223,5564 Z "/>
   </g>
  </g>
  <g class="com.sun.star.drawing.PolyPolygonShape">
   <g id="id14">
    <rect class="BoundingBox" stroke="none" fill="none" x="10706" y="5564" width="181" height="213"/>
    <path fill="rgb(0,97,156)" stroke="none" d="M 10886,5564 L 10846,5564 10846,5651 10746,5651 10746,5564 10706,5564 10706,5776 10746,5776 10746,5685 10846,5685 10846,5776 10886,5776 10886,5564 Z "/>
   </g>
  </g>
  <g class="com.sun.star.drawing.ClosedBezierShape">
   <g id="id15">
    <rect class="BoundingBox" stroke="none" fill="none" x="10398" y="5564" width="248" height="213"/>
    <path fill="rgb(0,97,156)" stroke="none" d="M 10645,5564 L 10578,5564 10541,5663 C 10539,5668 10535,5681 10530,5696 10527,5705 10525,5713 10522,5721 L 10520,5721 C 10509,5685 10504,5671 10500,5662 L 10463,5564 10398,5564 10398,5776 10437,5776 10437,5660 C 10437,5647 10437,5643 10435,5598 L 10436,5598 C 10446,5628 10452,5647 10456,5657 L 10503,5776 10540,5776 10587,5657 C 10591,5644 10591,5643 10606,5597 L 10607,5597 C 10606,5630 10605,5651 10605,5660 L 10605,5776 10645,5776 10645,5564 Z "/>
   </g>
  </g>
  <g class="com.sun.star.drawing.PolyPolygonShape">
   <g id="id16">
    <rect class="BoundingBox" stroke="none" fill="none" x="10210" y="5564" width="141" height="214"/>
    <path fill="rgb(0,97,156)" stroke="none" d="M 10251,5564 L 10210,5564 10210,5776 10350,5776 10350,5741 10251,5741 10251,5564 Z "/>
   </g>
  </g>
  <g class="com.sun.star.drawing.PolyPolygonShape">
   <g id="id17">
    <rect class="BoundingBox" stroke="none" fill="none" x="10010" y="5563" width="147" height="214"/>
    <path fill="rgb(0,97,156)" stroke="none" d="M 10050,5597 L 10155,5597 10155,5564 10010,5564 10010,5776 10156,5776 10156,5743 10050,5743 10050,5682 10149,5682 10149,5653 10050,5653 10050,5597 Z "/>
   </g>
  </g>
  <g class="com.sun.star.drawing.PolyPolygonShape">
   <g id="id18">
    <rect class="BoundingBox" stroke="none" fill="none" x="9772" y="5564" width="181" height="213"/>
    <path fill="rgb(0,97,156)" stroke="none" d="M 9952,5564 L 9912,5564 9912,5651 9812,5651 9812,5564 9772,5564 9772,5776 9812,5776 9812,5685 9912,5685 9912,5776 9952,5776 9952,5564 Z "/>
   </g>
  </g>
  <g class="com.sun.star.drawing.ClosedBezierShape">
   <g id="id19">
    <rect class="BoundingBox" stroke="none" fill="none" x="10939" y="5562" width="191" height="217"/>
    <path fill="rgb(0,97,156)" stroke="none" d="M 11084,5723 C 11078,5740 11070,5743 11036,5743 11000,5743 10991,5741 10986,5729 10982,5719 10981,5710 10981,5679 10981,5632 10981,5626 10984,5617 10989,5600 10997,5596 11032,5596 11068,5596 11077,5599 11082,5611 11087,5621 11088,5627 11088,5664 11088,5708 11087,5712 11084,5723 Z M 11084,5723 L 11084,5723 Z M 11126,5615 C 11122,5592 11112,5578 11095,5570 11083,5564 11068,5562 11038,5562 11022,5562 11009,5562 10999,5563 10980,5565 10962,5574 10953,5587 10942,5603 10940,5619 10940,5677 10940,5703 10940,5713 10942,5723 10946,5746 10953,5758 10968,5767 10981,5775 10997,5778 11031,5778 11046,5778 11058,5778 11068,5777 11090,5775 11108,5765 11117,5751 11127,5736 11129,5720 11129,5668 11129,5638 11128,5626 11126,5615 Z "/>
   </g>
  </g>
  <g class="com.sun.star.drawing.ClosedBezierShape">
   <g id="id20">
    <rect class="BoundingBox" stroke="none" fill="none" x="11092" y="5903" width="199" height="213"/>
    <path fill="rgb(0,97,156)" stroke="none" d="M 11289,5903 L 11249,5903 11249,6025 C 11249,6043 11249,6043 11250,6080 L 11249,6080 C 11233,6046 11222,6023 11215,6010 L 11160,5903 11092,5903 11092,6115 11131,6115 11131,5993 C 11131,5975 11131,5975 11130,5937 L 11131,5937 11142,5958 C 11152,5982 11156,5991 11160,5999 L 11220,6115 11289,6115 11289,5903 Z "/>
   </g>
  </g>
  <g class="com.sun.star.drawing.PolyPolygonShape">
   <g id="id21">
    <rect class="BoundingBox" stroke="none" fill="none" x="10893" y="5903" width="147" height="213"/>
    <path fill="rgb(0,97,156)" stroke="none" d="M 10933,5936 L 11038,5936 11038,5903 10893,5903 10893,6115 11039,6115 11039,6082 10933,6082 10933,6021 11032,6021 11032,5992 10933,5992 10933,5936 Z "/>
   </g>
  </g>
  <g class="com.sun.star.drawing.ClosedBezierShape">
   <g id="id22">
    <rect class="BoundingBox" stroke="none" fill="none" x="10432" y="5901" width="172" height="217"/>
    <path fill="rgb(0,97,156)" stroke="none" d="M 10598,5965 L 10598,5958 C 10598,5934 10592,5919 10580,5911 10568,5903 10553,5901 10518,5901 10478,5901 10462,5904 10449,5913 10437,5921 10432,5937 10432,5963 10432,5991 10438,6006 10454,6014 10465,6020 10473,6022 10510,6024 10545,6026 10545,6026 10550,6028 10559,6031 10563,6037 10563,6051 10563,6080 10557,6085 10522,6085 10486,6085 10481,6084 10476,6077 10472,6071 10471,6066 10470,6048 L 10432,6048 C 10432,6064 10432,6066 10433,6073 10435,6094 10444,6106 10461,6112 10472,6116 10486,6117 10518,6117 10561,6117 10577,6113 10590,6101 10599,6092 10603,6078 10603,6051 10603,6025 10599,6013 10587,6003 10576,5996 10565,5993 10528,5991 10493,5989 10493,5989 10487,5988 10476,5985 10473,5978 10473,5962 10473,5937 10480,5932 10520,5932 10551,5932 10559,5938 10559,5960 L 10559,5965 10598,5965 Z "/>
   </g>
  </g>
  <g class="com.sun.star.drawing.PolyPolygonShape">
   <g id="id23">
    <rect class="BoundingBox" stroke="none" fill="none" x="10238" y="5903" width="147" height="213"/>
    <path fill="rgb(0,97,156)" stroke="none" d="M 10278,5936 L 10383,5936 10383,5903 10238,5903 10238,6115 10384,6115 10384,6082 10278,6082 10278,6021 10377,6021 10377,5992 10278,5992 10278,5936 Z "/>
   </g>
  </g>
  <g class="com.sun.star.drawing.ClosedBezierShape">
   <g id="id24">
    <rect class="BoundingBox" stroke="none" fill="none" x="11443" y="5901" width="2286" height="217"/>
    <path fill="rgb(0,97,156)" stroke="none" d="M 11443,6115 L 11466,6115 11466,6030 11538,6030 C 11555,6030 11560,6031 11568,6037 11575,6043 11578,6051 11578,6067 L 11578,6115 11602,6115 11602,6061 C 11602,6036 11591,6022 11568,6020 L 11568,6020 C 11596,6015 11604,6002 11604,5963 11604,5919 11588,5903 11543,5903 L 11443,5903 11443,6115 Z M 11443,6115 L 11443,6115 Z M 11466,6008 L 11466,5923 11543,5923 C 11560,5923 11570,5927 11575,5934 11579,5940 11581,5949 11581,5971 11581,5999 11570,6008 11535,6008 L 11466,6008 Z M 11466,6008 L 11466,6008 Z M 11766,5901 C 11717,5901 11699,5906 11688,5925 11678,5940 11676,5955 11676,5994 11676,6016 11676,6036 11676,6042 11677,6078 11685,6098 11703,6108 11716,6115 11729,6117 11765,6117 11803,6117 11815,6115 11828,6108 11843,6099 11850,6087 11854,6063 11855,6051 11856,6042 11856,5999 11856,5971 11855,5966 11854,5956 11850,5931 11842,5916 11825,5908 11813,5902 11800,5901 11766,5901 Z M 11700,5975 C 11700,5954 11704,5938 11710,5931 11719,5923 11728,5921 11766,5921 11803,5921 11812,5923 11821,5931 11828,5938 11832,5954 11832,5975 L 11832,6008 11832,6043 C 11832,6063 11828,6079 11821,6086 11813,6095 11804,6096 11765,6096 11728,6096 11719,6094 11710,6086 11704,6079 11700,6063 11700,6043 L 11700,6008 11700,5975 Z M 11700,5975 L 11700,5975 Z M 12079,5960 C 12079,5940 12077,5931 12072,5922 12063,5905 12047,5901 12003,5901 11941,5901 11925,5913 11925,5961 11925,5998 11939,6014 11978,6017 12034,6020 12034,6020 12042,6021 12054,6024 12059,6033 12059,6053 12059,6092 12053,6096 12003,6096 11973,6096 11965,6095 11959,6091 11950,6086 11947,6077 11947,6055 L 11947,6050 11924,6050 C 11924,6067 11924,6068 11925,6075 11928,6095 11936,6107 11953,6113 11962,6116 11972,6117 11999,6117 12046,6117 12061,6113 12072,6101 12079,6093 12083,6078 12083,6055 12083,6031 12079,6018 12069,6008 12059,6000 12047,5997 12008,5995 11974,5994 11972,5994 11965,5991 11953,5987 11949,5978 11949,5957 11949,5942 11953,5932 11960,5927 11968,5922 11977,5921 12007,5921 12034,5921 12045,5924 12050,5932 12054,5938 12055,5944 12055,5960 L 12079,5960 Z M 12079,5960 L 12079,5960 Z M 12307,5960 C 12307,5940 12306,5931 12301,5922 12292,5905 12276,5901 12231,5901 12169,5901 12153,5913 12153,5961 12153,5998 12168,6014 12206,6017 12262,6020 12262,6020 12270,6021 12283,6024 12287,6033 12287,6053 12287,6092 12282,6096 12231,6096 12202,6096 12194,6095 12187,6091 12179,6086 12176,6077 12176,6055 L 12176,6050 12152,6050 C 12152,6067 12152,6068 12153,6075 12156,6095 12165,6107 12181,6113 12191,6116 12200,6117 12227,6117 12274,6117 12289,6113 12300,6101 12308,6093 12311,6078 12311,6055 12311,6031 12307,6018 12297,6008 12287,6000 12276,5997 12236,5995 12202,5994 12200,5994 12193,5991 12181,5987 12177,5978 12177,5957 12177,5942 12181,5932 12188,5927 12196,5922 12206,5921 12236,5921 12263,5921 12273,5924 12279,5932 12282,5938 12284,5944 12284,5960 L 12307,5960 Z M 12307,5960 L 12307,5960 Z M 12405,5923 L 12517,5923 12517,5903 12381,5903 12381,6115 12517,6115 12517,6094 12405,6094 12405,6016 12512,6016 12512,5995 12405,5995 12405,5923 Z M 12405,5923 L 12405,5923 Z M 12773,5903 L 12749,5903 12749,6064 C 12749,6075 12749,6085 12750,6095 L 12749,6095 C 12732,6067 12732,6067 12709,6030 L 12632,5903 12593,5903 12593,6115 12617,6115 12617,5955 C 12617,5944 12617,5933 12617,5923 L 12617,5923 12627,5939 C 12631,5946 12635,5952 12646,5970 L 12734,6115 12773,6115 12773,5903 Z M 12773,5903 L 12773,5903 Z M 12857,6115 L 12960,6115 C 12966,6115 12978,6113 12987,6111 13002,6107 13012,6100 13020,6086 13029,6070 13031,6053 13031,5999 13031,5956 13027,5937 13013,5921 13002,5908 12985,5903 12954,5903 L 12857,5903 12857,6115 Z M 12857,6115 L 12857,6115 Z M 12880,6094 L 12880,5923 12954,5923 C 12977,5923 12989,5927 12997,5937 13006,5950 13008,5962 13008,6013 13008,6054 13005,6069 12996,6081 12988,6089 12972,6094 12949,6094 L 12880,6094 Z M 12880,6094 L 12880,6094 Z M 13191,5901 C 13142,5901 13125,5906 13113,5925 13104,5940 13101,5955 13101,5994 13101,6016 13101,6036 13102,6042 13103,6078 13110,6098 13129,6108 13142,6115 13154,6117 13191,6117 13228,6117 13241,6115 13253,6108 13269,6099 13276,6087 13279,6063 13281,6051 13281,6042 13281,5999 13281,5971 13281,5966 13279,5956 13276,5931 13267,5916 13251,5908 13238,5902 13225,5901 13191,5901 Z M 13191,5901 L 13191,5901 Z M 13125,5975 C 13125,5954 13129,5938 13136,5931 13144,5923 13153,5921 13191,5921 13228,5921 13238,5923 13247,5931 13253,5938 13257,5954 13257,5975 L 13257,6008 13257,6043 C 13257,6063 13253,6079 13247,6086 13238,6095 13229,6096 13191,6096 13154,6096 13144,6094 13136,6086 13129,6079 13125,6063 13125,6043 L 13125,6008 13125,5975 Z M 13125,5975 L 13125,5975 Z M 13356,6115 L 13380,6115 13380,6030 13452,6030 C 13469,6030 13474,6031 13482,6037 13489,6043 13492,6051 13492,6067 L 13492,6115 13515,6115 13515,6061 C 13515,6036 13504,6022 13482,6020 L 13482,6020 C 13510,6015 13518,6002 13518,5963 13518,5919 13502,5903 13457,5903 L 13356,5903 13356,6115 Z M 13356,6115 L 13356,6115 Z M 13380,6008 L 13380,5923 13457,5923 C 13474,5923 13484,5927 13489,5934 13493,5940 13494,5949 13494,5971 13494,5999 13483,6008 13449,6008 L 13380,6008 Z M 13380,6008 L 13380,6008 Z M 13621,5923 L 13727,5923 13727,5903 13597,5903 13597,6115 13621,6115 13621,6018 13724,6018 13724,5997 13621,5997 13621,5923 Z "/>
   </g>
  </g>
  <g class="com.sun.star.drawing.ClosedBezierShape">
   <g id="id25">
    <rect class="BoundingBox" stroke="none" fill="none" x="10656" y="5903" width="186" height="213"/>
    <path fill="rgb(0,97,156)" stroke="none" d="M 10790,6068 C 10784,6077 10773,6081 10754,6081 L 10696,6081 10696,5938 10756,5938 C 10775,5938 10785,5941 10791,5950 10799,5960 10800,5972 10800,6009 10800,6045 10798,6057 10790,6068 Z M 10790,6068 L 10790,6068 Z M 10821,5921 C 10809,5908 10790,5903 10761,5903 L 10656,5903 10656,6115 10762,6115 C 10799,6115 10820,6106 10831,6084 10839,6068 10841,6050 10841,5992 10841,5954 10836,5936 10821,5921 Z "/>
   </g>
  </g>
  <g class="com.sun.star.drawing.ClosedBezierShape">
   <g id="id26">
    <rect class="BoundingBox" stroke="none" fill="none" x="10010" y="5903" width="175" height="213"/>
    <path fill="rgb(0,97,156)" stroke="none" d="M 10135,6003 C 10130,6008 10122,6010 10109,6010 L 10051,6010 10051,5937 10111,5937 C 10137,5937 10142,5943 10142,5974 10142,5991 10141,5997 10135,6003 Z M 10135,6003 L 10135,6003 Z M 10146,6027 L 10146,6026 C 10176,6020 10184,6009 10184,5966 10184,5918 10166,5903 10115,5903 L 10011,5903 10011,6115 10051,6115 10051,6044 10109,6044 C 10122,6044 10127,6046 10133,6051 10139,6056 10141,6064 10141,6078 L 10141,6115 10181,6115 10181,6070 C 10181,6042 10170,6029 10146,6027 Z "/>
   </g>
  </g>
  <g class="com.sun.star.drawing.ClosedBezierShape">
   <g id="id27">
    <rect class="BoundingBox" stroke="none" fill="none" x="9772" y="5903" width="186" height="213"/>
    <path fill="rgb(0,97,156)" stroke="none" d="M 9906,6068 C 9900,6077 9889,6081 9870,6081 L 9812,6081 9812,5938 9872,5938 C 9891,5938 9901,5941 9907,5950 9915,5960 9916,5972 9916,6009 9916,6045 9914,6057 9906,6068 Z M 9906,6068 L 9906,6068 Z M 9937,5921 C 9925,5908 9906,5903 9877,5903 L 9772,5903 9772,6115 9878,6115 C 9915,6115 9936,6106 9947,6084 9955,6068 9957,6050 9957,5992 9957,5954 9952,5936 9937,5921 Z "/>
   </g>
  </g>
 </g>
</svg>